# xmcd
#
# Track frame offsets: 
#        150
#        11994
#        23964
#        35388
#        48880
#        61846
#        73657
#        84989
#        97428
#        110742
#        119539
#        131050
#        142640
#        154947
#        165869
#        179580
#        189641
#        203979
#        218621
#        232248
#        244924
#        256594
#
# Disc length: 3595 seconds
#
# Revision: 0
# Processed by: cddbd v1.5.2PL0 Copyright (c) Steve Scherf et al.
# Submitted via: ExactAudioCopy v1.1
#
DISCID=3c0e0916
DTITLE=Various Artist - All-Time Country Favourites -1950's Disc 3
DYEAR=2008
DGENRE=Country
TTITLE0=Hank Williams - Kaw-liga
TTITLE1=Jim Reeves - Mexican Joe
TTITLE2=Sonny James - A white sport coat ( and a pink carnation )
TTITLE3=Ray Price - City Lights
TTITLE4=Browns - The Three Bells
TTITLE5=Tennessee Ernie Ford - Shotgun Boogie
TTITLE6=Sonny James - Young Love
TTITLE7=Patsy Cline - A poor man's roses, or a rich man's gold
TTITLE8=Hank Snow - I don't hurt anymore
TTITLE9=Johnnie and Jack - Oh baby Mine ( I get so lonely )
TTITLE10=Red Sovine and Webb Pierce - Why Baby Why
TTITLE11=Webb Pierce - Slowly
TTITLE12=George Jones - Just One More
TTITLE13=Ferlin Husky - Gone
TTITLE14=Davis Sisters - I forgot more than you'll ever know
TTITLE15=Johnny Cash - Ballad of a Teenage Queen
TTITLE16=Slim Whitman - Indian Love Call
TTITLE17=Gene Autrey - Old soldiers never die, they just fade away
TTITLE18=Pee Wee King - Slow poke
TTITLE19=Red Foley - Chattanoogie shoe shine boy
TTITLE20=Bill Monroe and the Bluegrass Boys - Gotta travel on
TTITLE21=Bob Willis and his Texas Playboys - Faded love
EXTD=
EXTT0=
EXTT1=
EXTT2=
EXTT3=
EXTT4=
EXTT5=
EXTT6=
EXTT7=
EXTT8=
EXTT9=
EXTT10=
EXTT11=
EXTT12=
EXTT13=
EXTT14=
EXTT15=
EXTT16=
EXTT17=
EXTT18=
EXTT19=
EXTT20=
EXTT21=
PLAYORDER=
